<svg xmlns="http://www.w3.org/2000/svg" xml:space="preserve" stroke-miterlimit="10" style="fill-rule:nonzero;clip-rule:evenodd;stroke-linecap:round;stroke-linejoin:round" viewBox="0 0 1024 1024"><defs><linearGradient id="a" x1="0" x2="1" y1="0" y2="0" gradientTransform="rotate(89.971 221.505 290.727)scale(886.66111)" gradientUnits="userSpaceOnUse"><stop offset="0" stop-color="#7405e8"/><stop offset=".5" stop-color="#5309e8"/><stop offset="1" stop-color="#0511e8"/></linearGradient><linearGradient id="d" x1="0" x2="1" y1="0" y2="0" gradientTransform="rotate(90.06 163.554 347.283)scale(658.21736)" gradientUnits="userSpaceOnUse"><stop offset="0" stop-color="#fff"/><stop offset="1" stop-color="#c1c3e5"/></linearGradient><radialGradient id="c" cx="0" cy="0" r="1" gradientTransform="rotate(89.92 255.982 256.34)scale(820.0038)" gradientUnits="userSpaceOnUse"><stop offset="0" stop-color="#381e95"/><stop offset=".7" stop-color="#260b85"/><stop offset="1" stop-color="#1c056c"/></radialGradient><filter id="b" width="825.184" height="740.062" x="99.408" y="149.969" color-interpolation-filters="sRGB" filterUnits="userSpaceOnUse"><feDropShadow dx="0" dy="8" flood-color="#130054" flood-opacity=".354" in="SourceGraphic" result="Shadow" stdDeviation="16"/></filter></defs><path fill="url(#a)" d="M330.888 68.008h362.224c41.547 0 92.067 29.168 112.84 65.148l181.112 313.696c20.776 35.98 20.776 94.316 0 130.296L805.952 890.844c-20.773 35.98-71.293 65.148-112.84 65.148H330.888c-41.547 0-92.067-29.168-112.84-65.148L36.936 577.148c-20.773-35.98-20.773-94.316 0-130.296l181.112-313.696c20.773-35.98 71.293-65.148 112.84-65.148"/><g filter="url(#b)"><path fill="url(#c)" d="m696.583 215.701 164.31 284.595c3.732 6.464 3.732 16.944 0 23.408l-164.31 284.595c-3.732 6.464-12.808 11.704-20.272 11.704H347.689c-7.464 0-16.54-5.24-20.272-11.704L163.106 523.704c-3.732-6.464-3.732-16.944 0-23.408l164.311-284.595c3.732-6.464 12.808-11.704 20.272-11.704h328.622c7.464 0 16.54 5.24 20.272 11.704"/><path fill="url(#d)" d="M350.406 181.969c-15.995 0-35.439 11.241-43.437 25.093L145.406 486.906c-7.998 13.853-7.998 36.335 0 50.188l161.563 279.844c7.998 13.852 27.441 25.093 43.437 25.093h6.25c8.837 0 16-7.163 16-16V614.219c0-6.628 5.373-12 12-12h443.313c7.149 0 15.824-4.981 19.469-11.157l31.156-53.968c7.998-13.853 7.998-36.335 0-50.188l-4.781-8.25c-3.505-6.069-12.023-11-19.032-11H384.656c-6.627 0-12-5.372-12-12V327.031c0-6.627 5.373-12 12-12h373.219c11.863 0 16.686-8.324 10.781-18.593l-51.625-89.376c-7.998-13.852-27.442-25.093-43.437-25.093z"/></g></svg>